HIERARCHY
ROOT Hips
{
	OFFSET 0.000000 0.000000 0.000000
	CHANNELS 6 Xposition Yposition Zposition Xrotation Yrotation Zrotation
	JOINT LeftUpLeg_virtual
	{
		OFFSET 0.000000 0.000000 0.000000
		CHANNELS 3 Xrotation Yrotation Zrotation
		JOINT LeftUpLeg
		{
			OFFSET 13.026900 -6.336304 -1.092800
			CHANNELS 3 Xrotation Yrotation Zrotation
			JOINT LeftLeg
			{
				OFFSET 0.524474 -46.096886 9.782700
				CHANNELS 3 Xrotation Yrotation Zrotation
				JOINT LeftFoot
				{
					OFFSET -0.524474 -53.427422 -12.948200
					CHANNELS 3 Xrotation Yrotation Zrotation
					JOINT LeftToeBase
					{
						OFFSET 0.192200 -14.009700 16.364100
						CHANNELS 3 Xrotation Yrotation Zrotation
						JOINT LeftToe_End
						{
							OFFSET -1.784700 -0.561700 9.474800
							CHANNELS 3 Xrotation Yrotation Zrotation
							End Site
							{
								OFFSET 0 0 0
							}
						}
					}
				}
			}
		}
	}
	JOINT RightUpLeg_virtual
	{
		OFFSET 0.000000 0.000000 0.000000
		CHANNELS 3 Xrotation Yrotation Zrotation
		JOINT RightUpLeg
		{
			OFFSET -12.883000 -6.336304 -1.092800
			CHANNELS 3 Xrotation Yrotation Zrotation
			JOINT RightLeg
			{
				OFFSET -0.524587 -46.096825 9.782800
				CHANNELS 3 Xrotation Yrotation Zrotation
				JOINT RightFoot
				{
					OFFSET 0.524587 -53.427383 -12.948300
					CHANNELS 3 Xrotation Yrotation Zrotation
					JOINT RightToeBase
					{
						OFFSET -0.192200 -14.009700 16.364100
						CHANNELS 3 Xrotation Yrotation Zrotation
						JOINT RightToe_End
						{
							OFFSET 1.784700 -0.561700 9.474800
							CHANNELS 3 Xrotation Yrotation Zrotation
							End Site
							{
								OFFSET 0 0 0
							}
						}
					}
				}
			}
		}
	}
	JOINT Spine_virtual
	{
		OFFSET 0.000000 0.000000 0.000000
		CHANNELS 3 Xrotation Yrotation Zrotation
		JOINT Spine
		{
			OFFSET 0.072000 7.257294 -0.789700
			CHANNELS 3 Xrotation Yrotation Zrotation
			JOINT Spine1
			{
				OFFSET 0.000000 12.508769 -0.658067
				CHANNELS 3 Xrotation Yrotation Zrotation
				JOINT Spine1_split
				{
					OFFSET 0.000000 12.508769 -0.658067
					CHANNELS 3 Xrotation Yrotation Zrotation
					JOINT Spine2
					{
						OFFSET 0.000000 12.508769 -0.658067
						CHANNELS 3 Xrotation Yrotation Zrotation
						JOINT Neck_virtual
						{
							OFFSET 0.000000 0.000000 0.000000
							CHANNELS 3 Xrotation Yrotation Zrotation
							JOINT Neck
							{
								OFFSET 0.000000 14.033295 7.520400
								CHANNELS 3 Xrotation Yrotation Zrotation
								JOINT Head
								{
									OFFSET 0.000000 8.198502 5.703100
									CHANNELS 3 Xrotation Yrotation Zrotation
									JOINT HeadTop_End
									{
										OFFSET 0.000000 17.760803 13.332701
										CHANNELS 3 Xrotation Yrotation Zrotation
										End Site
										{
											OFFSET 0 0 0
										}
									}
								}
							}
						}
						JOINT LeftShoulder_virtual
						{
							OFFSET 0.000000 0.000000 0.000000
							CHANNELS 3 Xrotation Yrotation Zrotation
							JOINT LeftShoulder
							{
								OFFSET 6.292450 5.785301 -0.669000
								CHANNELS 3 Xrotation Yrotation Zrotation
								JOINT LeftShoulder_split
								{
									OFFSET 6.292450 5.785301 -0.669000
									CHANNELS 3 Xrotation Yrotation Zrotation
									JOINT LeftArm
									{
										OFFSET 13.907140 -6.093903 1.965100
										CHANNELS 3 Xrotation Yrotation Zrotation
										JOINT LeftForeArm
										{
											OFFSET 34.140198 0.000000 0.000000
											CHANNELS 3 Xrotation Yrotation Zrotation
											JOINT LeftHand
											{
												OFFSET 40.960209 0.000000 0.000000
												CHANNELS 3 Xrotation Yrotation Zrotation
												End Site
												{
													OFFSET 0 0 0
												}
											}
										}
									}
								}
							}
						}
						JOINT RightShoulder_virtual
						{
							OFFSET 0.000000 0.000000 0.000000
							CHANNELS 3 Xrotation Yrotation Zrotation
							JOINT RightShoulder
							{
								OFFSET -6.292450 5.785301 -0.669000
								CHANNELS 3 Xrotation Yrotation Zrotation
								JOINT RightShoulder_split
								{
									OFFSET -6.292450 5.785301 -0.669000
									CHANNELS 3 Xrotation Yrotation Zrotation
									JOINT RightArm
									{
										OFFSET -13.907140 -6.093903 1.965100
										CHANNELS 3 Xrotation Yrotation Zrotation
										JOINT RightForeArm
										{
											OFFSET -34.140198 0.000000 0.000000
											CHANNELS 3 Xrotation Yrotation Zrotation
											JOINT RightHand
											{
												OFFSET -40.960209 0.000000 0.000000
												CHANNELS 3 Xrotation Yrotation Zrotation
												End Site
												{
													OFFSET 0 0 0
												}
											}
										}
									}
								}
							}
						}
					}
				}
			}
		}
	}
}
MOTION
Frames: 6
Frame Time: 0.03333333
-5.067198 101.019867 -1.223190 0.000000 0.000000 0.000000 -4.197090 -8.129546 5.858103 -64.793900 6.795440 6.405443 52.217845 3.279236 -4.413946 9.336995 -0.901942 3.087520 -1.835233 -0.118520 1.287130 0.000000 0.000000 0.000000 -4.078387 -9.802074 5.542916 -18.862349 -9.289815 -6.185695 49.484550 8.964634 1.626275 -24.429114 1.625695 -7.747497 -4.648778 0.099827 0.061173 0.000000 0.000000 0.000000 -3.215605 -7.427476 4.598709 13.456836 0.488040 -4.167975 2.424576 0.216336 -0.929835 0.530787 -0.836505 0.324488 0.000000 0.000000 0.000000 2.846541 0.184454 -0.777537 1.924526 -0.490050 0.819203 22.841095 5.466000 -0.338147 0.000000 0.000000 0.000000 2.671736 0.270134 -0.799932 1.522750 1.932267 -9.202888 0.588895 -2.139202 -0.768208 14.269112 -25.698617 -53.774090 0.561753 -33.218430 0.207205 0.000000 0.000000 0.000000 2.699206 -0.130206 -1.035150 -0.032827 5.927831 18.547537 -0.080281 3.445898 -1.854914 14.468164 20.140857 48.395251 1.280370 40.705380 -0.327246 0.000000 0.000000 0.000000 
-5.211446 101.387024 -2.118088 0.000000 0.000000 0.000000 -3.235035 -8.060142 6.184535 -64.716766 6.393183 6.077575 45.068590 3.565647 -4.005558 11.232230 0.738455 2.237877 1.731210 0.235728 0.031687 0.000000 0.000000 0.000000 -3.610088 -9.129312 5.907558 -19.220323 -8.831689 -5.739826 48.995563 8.218097 1.354905 -24.537849 0.726416 -8.672820 -4.290210 0.124052 0.251060 0.000000 0.000000 0.000000 -2.611300 -6.614990 5.158008 13.730824 0.414891 -4.546030 2.624035 0.255971 -0.993698 0.855494 -0.940180 0.653109 0.000000 0.000000 0.000000 2.967674 0.201594 -0.844541 2.206044 -0.562507 0.761240 22.649414 5.363721 -0.209055 0.000000 0.000000 0.000000 2.792536 0.332180 -0.884315 1.659025 1.973525 -9.287271 0.706045 -2.344091 -0.579824 15.003866 -26.739125 -53.974726 0.303330 -33.277809 -0.134574 0.000000 0.000000 0.000000 2.840930 -0.103565 -1.135747 -0.099052 6.666857 18.736143 -0.007307 3.555355 -1.546582 14.288498 19.468746 47.975713 1.050379 42.473391 -0.183757 0.000000 0.000000 0.000000 
-5.339198 101.713943 -3.147449 0.000000 0.000000 0.000000 -2.411076 -7.607030 6.164196 -64.838726 6.060178 6.401297 40.416343 3.155074 -3.441200 12.450681 1.817542 1.157389 3.858927 0.518217 -0.990704 0.000000 0.000000 0.000000 -2.966504 -8.113908 5.935095 -19.940901 -8.685426 -5.159595 48.379456 7.388970 1.238361 -24.310469 0.035250 -9.641624 -3.956083 0.161774 0.426638 0.000000 0.000000 0.000000 -1.939439 -5.709002 5.410732 13.967594 0.273484 -4.641975 2.809839 0.239086 -1.024938 1.183492 -0.971458 0.814002 0.000000 0.000000 0.000000 3.045788 0.156569 -0.887395 2.415373 -0.615665 0.799487 22.323532 5.270968 -0.003188 0.000000 0.000000 0.000000 2.868487 0.322413 -0.942999 1.782381 1.880739 -9.280312 0.881108 -2.556680 -0.476118 15.361374 -27.546138 -54.203579 -0.014175 -33.289850 -0.562961 0.000000 0.000000 0.000000 2.939088 -0.128917 -1.189144 -0.174697 7.285858 19.013194 0.231628 3.559246 -1.379060 13.730072 18.807114 47.469022 0.830833 44.336940 -0.022121 0.000000 0.000000 0.000000 
-5.487722 102.154541 -4.180107 0.000000 0.000000 0.000000 -1.500917 -6.551551 5.961163 -64.526006 6.206580 6.876576 38.481976 2.267950 -2.846606 11.523718 2.010504 1.108850 3.284167 0.577382 -1.182867 0.000000 0.000000 0.000000 -2.168675 -6.982888 5.776249 -21.155737 -8.880953 -4.654727 47.518224 6.732456 1.227444 -23.311331 -0.261639 -10.143768 -3.788126 0.181049 0.541576 0.000000 0.000000 0.000000 -0.937967 -4.689770 5.468406 14.066903 0.012346 -4.468010 2.952294 0.152453 -1.028319 1.327609 -1.169986 0.730473 0.000000 0.000000 0.000000 3.099196 0.035118 -0.885995 2.483758 -0.627187 0.895254 21.916294 5.201828 0.219138 0.000000 0.000000 0.000000 2.906965 0.221689 -0.957937 1.882144 1.610635 -9.148729 1.195442 -2.755615 -0.358059 15.361977 -28.186944 -54.410134 -0.260787 -33.250430 -0.956442 0.000000 0.000000 0.000000 2.995348 -0.215512 -1.173987 -0.249428 7.732446 19.408322 0.528758 3.434909 -1.324406 12.997122 18.300683 46.768747 0.714619 45.709993 0.085048 0.000000 0.000000 0.000000 
-5.703003 102.715248 -5.071468 0.000000 0.000000 0.000000 -0.407125 -4.882873 5.667171 -63.732803 6.609389 6.890058 39.379705 0.893681 -2.322818 8.886757 1.313852 1.888790 1.576179 0.437870 -1.001593 0.000000 0.000000 0.000000 -1.045347 -6.089033 5.582516 -22.956274 -9.314291 -4.429343 46.285480 6.356799 1.305799 -21.415474 -0.126790 -9.887177 -3.867399 0.165789 0.581851 0.000000 0.000000 0.000000 0.427321 -3.722019 5.361202 13.974509 -0.364586 -4.127332 3.026167 -0.009077 -0.999815 1.257856 -1.457829 0.487621 0.000000 0.000000 0.000000 3.156027 -0.143126 -0.825623 2.436312 -0.651314 0.998371 21.526192 5.124345 0.352550 0.000000 0.000000 0.000000 2.920731 0.042927 -0.916236 1.959096 1.205963 -8.974500 1.612144 -2.931334 -0.270740 15.163981 -28.731228 -54.559309 -0.341578 -33.282146 -1.182839 0.000000 0.000000 0.000000 3.005959 -0.374124 -1.076918 -0.303866 7.990745 19.881257 0.807479 3.258910 -1.444195 12.333641 17.932812 46.047138 0.774201 46.223346 0.075934 0.000000 0.000000 0.000000 
-5.967127 103.401840 -5.792355 0.000000 0.000000 0.000000 1.027238 -3.085405 5.409234 -62.136109 7.126166 6.302042 42.414792 -0.534681 -1.998248 5.945476 0.415462 2.937548 -0.199985 0.186706 -0.540477 0.000000 0.000000 0.000000 0.473662 -5.589777 5.454777 -25.020632 -9.866656 -4.444043 44.572865 6.283058 1.446898 -18.951483 0.420771 -9.026481 -4.070328 0.119353 0.536401 0.000000 0.000000 0.000000 2.224420 -2.988547 5.155121 13.680201 -0.855162 -3.689103 3.017353 -0.231181 -0.943802 1.049175 -1.447947 0.157172 0.000000 0.000000 0.000000 3.213518 -0.369748 -0.722964 2.354243 -0.639297 1.077581 21.266947 5.028594 0.330354 0.000000 0.000000 0.000000 2.917574 -0.192596 -0.828877 2.020947 0.790234 -8.791183 1.997342 -3.115191 -0.208214 15.041072 -29.224822 -54.583153 -0.176799 -33.478425 -1.152489 0.000000 0.000000 0.000000 3.003814 -0.583187 -0.921335 -0.332658 8.037256 20.353224 0.932569 3.164020 -1.710139 12.083878 17.580618 45.494797 1.011202 46.031274 -0.068809 0.000000 0.000000 0.000000 
